<svg id="Bird_licht" data-name="Bird licht" xmlns="http://www.w3.org/2000/svg" viewBox="0 0 1000 824.39">
  <defs>
    <style>
      .cls-1 {
        fill: #b370aa;
      }

      .cls-2 {
        fill: #99408e;
      }

      .cls-3 {
        fill: #e6cfe3;
      }

      .cls-4 {
        fill: #fff;
      }

      .cls-5 {
        fill: #cc9fc7;
      }
    </style>
  </defs>
  <title>Bird_licht</title>
  <ellipse class="cls-1" cx="172.68" cy="123.36" rx="82.47" ry="110.82"/>
  <path class="cls-2" d="M560.57,886.76h-40V788.82H487.11v97.94h-58a16.75,16.75,0,0,0,0,33.5H560.57a16.75,16.75,0,0,0,0-33.5Z" transform="translate(0 -95.87)"/>
  <path class="cls-2" d="M470.36,886.76H430.41V788.82h-33.5v97.94h-58a16.75,16.75,0,1,0,0,33.5H470.36a16.75,16.75,0,0,0,0-33.5Z" transform="translate(0 -95.87)"/>
  <path class="cls-1" d="M788.66,440.88H69.47C70,469.2,76,639.32,211.34,750.16c129,105.64,346.52,133.68,479.38,10.31C816.45,643.73,791.67,460.75,788.66,440.88Z" transform="translate(0 -95.87)"/>
  <path class="cls-3" d="M235.82,17.69h0A166.24,166.24,0,0,1,402.06,183.93V574.39a0,0,0,0,1,0,0H299.62a230,230,0,0,1-230-230V183.93A166.24,166.24,0,0,1,235.82,17.69Z"/>
  <path class="cls-3" d="M762.89,203.77H866A108.25,108.25,0,0,1,974.23,312V466.66a0,0,0,0,1,0,0h-18a193.3,193.3,0,0,1-193.3-193.3V203.77a0,0,0,0,1,0,0Z" transform="translate(533.34 1107.9) rotate(-90)"/>
  <path class="cls-2" d="M22.26,272.42h66.3a0,0,0,0,1,0,0V383.25a0,0,0,0,1,0,0h0a66.3,66.3,0,0,1-66.3-66.3V272.42A0,0,0,0,1,22.26,272.42Z" transform="translate(383.25 176.55) rotate(90)"/>
  <path class="cls-2" d="M501.29,470.52h20.62A108.25,108.25,0,0,1,630.15,578.77V787.53a0,0,0,0,1,0,0h-56.7A180.41,180.41,0,0,1,393,607.12V578.77A108.25,108.25,0,0,1,501.29,470.52Z" transform="translate(-117.43 1044.76) rotate(-90)"/>
  <circle class="cls-4" cx="213.92" cy="174.91" r="51.55"/>
  <circle class="cls-2" cx="208.76" cy="180.06" r="25.77"/>
  <ellipse class="cls-1" cx="340.21" cy="255.32" rx="82.47" ry="110.82" transform="translate(-38.68 -33.88) rotate(-9.85)"/>
  <path class="cls-5" d="M311.86,245c7.29,16.23,15.69,37.06,33.5,41.23,9.78,2.3,21.24-.69,28.35-7.73,13-12.82,8.11-35.81,5.16-49-10.94-48.65-53.64-106.86-118.56-126.29-12.89-3.85-44.82-13-82.47-2.57a134.9,134.9,0,0,0-30.93,12.88c55.15-3.88,84.14,10.94,100.51,25.78C276,165.26,302.53,224.25,311.86,245Z" transform="translate(0 -95.87)"/>
</svg>
