<svg id="Fabriek" xmlns="http://www.w3.org/2000/svg" viewBox="0 0 1000 630.18">
  <defs>
    <style>
      .cls-1 {
        fill: #fff;
      }

      .cls-2 {
        fill: #e6cfe3;
      }

      .cls-3 {
        fill: #cc9fc7;
      }
    </style>
  </defs>
  <title>Industry</title>
  <g>
    <path class="cls-1" d="M767,326q-3.24,184.23-6.47,368.45H842V326Z" transform="translate(0 -326)"/>
    <path class="cls-2" d="M842,326V694.45h81.48L915.73,326Z" transform="translate(0 -326)"/>
  </g>
  <path class="cls-3" d="M664.2,637.66V548.77H0V956.18H548.15V746.3h237V956.18H1000V637.66Z" transform="translate(0 -326)"/>
  <g>
    <path class="cls-3" d="M130.86,551.24V477.17L0,548.77" transform="translate(0 -326)"/>
    <path class="cls-3" d="M264.2,551.24V477.17l-130.87,71.6" transform="translate(0 -326)"/>
    <path class="cls-3" d="M397.53,551.24V477.17l-130.86,71.6" transform="translate(0 -326)"/>
    <path class="cls-3" d="M530.86,551.24V477.17L400,548.77" transform="translate(0 -326)"/>
    <path class="cls-3" d="M664.2,551.24V477.17l-130.87,71.6" transform="translate(0 -326)"/>
  </g>
  <rect class="cls-1" x="46.91" y="464.75" width="98.77" height="98.77"/>
  <rect class="cls-1" x="212.35" y="464.75" width="98.77" height="98.77"/>
  <rect class="cls-2" x="377.78" y="464.75" width="98.77" height="98.77"/>
  <polygon class="cls-2" points="533.33 405.49 533.33 630.18 548.15 630.18 548.15 420.3 785.18 420.3 785.18 630.18 800 630.18 800 405.49 533.33 405.49"/>
</svg>
