<svg id="Boom" xmlns="http://www.w3.org/2000/svg" viewBox="0 0 872.23 779.94">
  <defs>
    <style>
      .cls-1 {
        fill: #e6cfe3;
      }

      .cls-2 {
        fill: #cc9fc7;
      }

      .cls-3 {
        fill: #b370aa;
      }
    </style>
  </defs>
  <title>Park</title>
  <path class="cls-1" d="M721,759a1675.44,1675.44,0,0,1-16-245l-111-2a1251,1251,0,0,1-10,224,1250.67,1250.67,0,0,1-38,180H750.61C739.17,868,728.89,815.57,721,759Z" transform="translate(-76 -136.06)"/>
  <path class="cls-2" d="M947,364c-7.49-41-45.72-58.05-48.71-59.32,16.74-32,12.84-70.27-9.29-95.68-26.55-30.49-74.76-37.14-112-13a75.63,75.63,0,0,0-137.1-26c-2-2.55-24.32-29.26-57.2-26.62C552,145.86,525,172.92,521,209c-38-24.52-84.82-15.21-105,14-14.29,20.72-14.19,50.09-.82,75.13C381.6,312.39,359.48,344.69,359,380c-.54,39.66,26.32,75.92,65.91,87.84-1.86,2.65-26.67,39.18-12.12,73C427.65,575.41,478.48,595.26,528,574a77.91,77.91,0,0,0,70,41c43.3-1,65-38.28,66-40,8.8,6.23,32.24,21,65,21,48.34,0,78.84-32.35,84-38,48.33,17.58,96.25-3.92,109.42-38.45,13.1-34.36-12.9-69.26-14.72-71.63C937.3,429.87,952.89,396.26,947,364Z" transform="translate(-76 -136.06)"/>
  <rect class="cls-3" x="356.13" y="836" width="145" height="15" transform="translate(-490.88 1136.07) rotate(-90)"/>
  <rect class="cls-3" x="62.88" y="836" width="145" height="15" transform="translate(-784.12 842.82) rotate(-90)"/>
  <rect class="cls-1" y="698.94" width="411" height="16"/>
  <rect class="cls-2" x="8" y="611.94" width="395" height="55"/>
</svg>
