<svg id="Vliegtuig" xmlns="http://www.w3.org/2000/svg" viewBox="0 0 1000 553.26">
  <defs>
    <style>
      .cls-1 {
        fill: #cc9fc7;
      }

      .cls-2 {
        fill: #e6cfe3;
      }

      .cls-3 {
        fill: #fff;
      }

      .cls-4 {
        fill: #801072;
      }
    </style>
  </defs>
  <title>Airplane</title>
  <g>
    <g>
      <path class="cls-1" d="M615.55,333.73c-7.52-.34-18.16-.71-30.95-.82-27.64-.24-35.36,1-43.17,4.07-6.76,2.67-21.5,8.49-22.81,18.74-1.55,12.17,16.75,23.85,27.7,28.5,5.71,2.43,10.87,3.57,35.83,5.71,13.73,1.17,25.2,1.94,33.4,2.44,1.54-1.29,14.63-12.57,13.84-30.95C628.69,345,617.39,335.25,615.55,333.73Z" transform="translate(0 -214.37)"/>
      <path class="cls-2" d="M618.81,333.73c-3.58,0-6.89,2.08-9.58,5.6a5.55,5.55,0,0,1,2.65-.72c6.08,0,11,10.94,11,24.44s-4.92,24.43-11,24.43a5.44,5.44,0,0,1-2.65-.72c2.69,3.53,6,5.61,9.58,5.61,9,0,16.29-13.13,16.29-29.32S627.8,333.73,618.81,333.73Z" transform="translate(0 -214.37)"/>
      <path class="cls-3" d="M618.81,333.73c-9,0-16.29,13.12-16.29,29.32s7.29,29.32,16.29,29.32,16.29-13.13,16.29-29.32S627.8,333.73,618.81,333.73ZM620,386.51c-6.08,0-11-10.51-11-23.46s4.92-23.46,11-23.46,11,10.5,11,23.46S626.1,386.51,620,386.51Z" transform="translate(0 -214.37)"/>
    </g>
    <g>
      <path class="cls-2" d="M649.06,389.21,424.44,214.37H407.16l114,178.43Z" transform="translate(0 -214.37)"/>
      <path class="cls-4" d="M424.44,214.37H407.16l53.58,83.83h71.4Z" transform="translate(0 -214.37)"/>
    </g>
  </g>
  <g>
    <path class="cls-4" d="M999.94,441.9a27,27,0,0,0-2-8.23,2671.33,2671.33,0,0,1-267.49,26.19A2695.54,2695.54,0,0,1,64.7,408.08l.22-.05c-10,2.18-19.3,4.31-27.8,6.33l16.77,25.15a1238.71,1238.71,0,0,0,147.3,40.71c32.82,6.93,60.12,11.31,81.43,14.37,255.52,36.79,662.45,31.51,708.94-29.94C994.26,461.07,1000.69,452.58,999.94,441.9Z" transform="translate(0 -214.37)"/>
    <path class="cls-3" d="M730.49,459.86A2668.39,2668.39,0,0,0,998,433.67c-10.22-25.28-56-43.39-62.86-46,0,0-1.21-.47-2.24-.85-76.71-28-524.52-12-524.52-12-87.1,3.12-108-.08-179.63,7.18a1472.49,1472.49,0,0,0-164,26.06A2695.54,2695.54,0,0,0,730.49,459.86Z" transform="translate(0 -214.37)"/>
    <path class="cls-2" d="M895.75,414.36l7.19,14.37A173,173,0,0,0,983.47,415c-9.3-8.08-20.94-14.76-30.56-19.52C932,415.08,903.18,414.68,895.75,414.36Z" transform="translate(0 -214.37)"/>
  </g>
  <g>
    <rect class="cls-2" x="785.58" y="203.58" width="34.73" height="55.09" rx="5.99"/>
    <rect class="cls-2" x="350.88" y="183.22" width="93.41" height="83.83" rx="8.98"/>
  </g>
  <g>
    <g>
      <path class="cls-1" d="M590.38,567.64c-11-.49-26.7-1-45.5-1.2-40.64-.35-52,1.46-63.47,6-9.94,3.92-31.62,12.48-33.53,27.55-2.28,17.9,24.62,35.06,40.71,41.91,8.4,3.57,16,5.24,52.69,8.38,20.19,1.73,37.05,2.86,49.1,3.59,2.27-1.88,21.51-18.48,20.36-45.5C609.71,584.15,593.09,569.89,590.38,567.64Z" transform="translate(0 -214.37)"/>
      <path class="cls-2" d="M595.17,567.64c-5.26,0-10.12,3.07-14.08,8.25a8,8,0,0,1,3.9-1.06c8.93,0,16.17,16.08,16.17,35.92s-7.24,35.93-16.17,35.93a8,8,0,0,1-3.9-1.06c4,5.18,8.82,8.24,14.08,8.24,13.23,0,24-19.3,24-43.11S608.4,567.64,595.17,567.64Z" transform="translate(0 -214.37)"/>
      <path class="cls-3" d="M595.17,567.64c-13.22,0-23.95,19.3-23.95,43.11s10.73,43.11,23.95,43.11,24-19.3,24-43.11S608.4,567.64,595.17,567.64Zm1.8,77.6c-8.93,0-16.17-15.44-16.17-34.49S588,576.26,597,576.26s16.17,15.45,16.17,34.49S605.9,645.24,597,645.24Z" transform="translate(0 -214.37)"/>
    </g>
    <g>
      <path class="cls-2" d="M651.46,509,330.52,767.63H304.17l195.2-259.86a97.54,97.54,0,0,1,29.94-25.15c20.62-11.08,39.26-11.08,63.47-10.78,19.92.24,65.33.8,69.46,16.76C663.21,492.38,662.31,498.72,651.46,509Z" transform="translate(0 -214.37)"/>
      <path class="cls-4" d="M456.19,565.25l-152,202.38h26.35l251.1-202.38Z" transform="translate(0 -214.37)"/>
    </g>
  </g>
  <g>
    <path class="cls-1" d="M117.36,444.3c-12.28,6.41-50,27.92-101.79,57.48H0c28.86-29.29,49-50.42,57.48-61.08a30.56,30.56,0,0,1,11-9c3.34-1.58,8.66-3.27,22.57-1.76,3.59.38,30.91,3.33,31.14,9.58C122.23,441.77,118.72,443.59,117.36,444.3Z" transform="translate(0 -214.37)"/>
    <path class="cls-2" d="M112.57,402.38c-10.08-9.93-38.41-43.45-77.84-91L18,312.57C42.53,365.89,60.28,404.5,63.47,412a11.3,11.3,0,0,0,2.39,3.6c4.23,4.17,11.06,3.66,20.36,2.39,19.33-2.64,29-4.05,29.94-8.38C116.82,406.51,113.65,403.45,112.57,402.38Z" transform="translate(0 -214.37)"/>
  </g>
</svg>
