<svg id="Auto" xmlns="http://www.w3.org/2000/svg" viewBox="0 0 1000 348.22">
  <defs>
    <style>
      .cls-1 {
        fill: #e6cfe3;
      }

      .cls-2 {
        fill: #fff;
      }

      .cls-3 {
        fill: #cc9fc7;
      }
    </style>
  </defs>
  <title>Car</title>
  <path class="cls-1" d="M90,657.28h.73A97.09,97.09,0,1,1,273,659.09l4.67,0,434.44-7.68h1a97.09,97.09,0,1,1,187.23-2.14l3.73,0" transform="translate(0 -359.18)"/>
  <path class="cls-2" d="M990.73,559.3c-3.19-3.44-4.59-3-11-7.68-20.3-14.8-28.7-35.41-30.71-39.49-15.12-30.66-179-161.59-398.24-152.49-48.33,2-86.45,3.58-132.74,23C343.29,414.1,332,456.51,259,470.44c-26.31,5-32.09.89-96.54,9.87-27.43,3.83-61.86,9.52-91.06,29.62C57,519.86,48.47,525.72,42.87,537.36c-5.49,11.41-5.13,22.06-15.36,30.72-6.26,5.3-8.33,2.94-14.26,7.68C-.58,586.81-.2,608.35.09,624c.23,13,.54,22.32,7.67,28.52C13.23,657.3,20,657.81,24.22,658c25.13,1.36,51.45.13,65.81-.76h.73A97.09,97.09,0,1,1,273,659.09l4.67,0,434.44-7.68h1a97.09,97.09,0,1,1,187.23-2.14l3.73,0c4.09-.11,10.19-.38,17.55-1.1C953.1,645.09,970,643.84,982,632.8,1002.37,613.93,1005.7,575.41,990.73,559.3Z" transform="translate(0 -359.18)"/>
  <g>
    <circle class="cls-2" cx="182.2" cy="265.39" r="82.83"/>
    <circle class="cls-3" cx="182.2" cy="265.39" r="60.89"/>
  </g>
  <g>
    <circle class="cls-2" cx="806.43" cy="265.39" r="82.83"/>
    <circle class="cls-3" cx="806.43" cy="265.39" r="60.89"/>
  </g>
  <path class="cls-1" d="M327,469.34q96.36-6.45,196.37-11,127.85-5.73,250.14-7.68a281,281,0,0,0-59.25-40.59c-71.77-36.6-140.68-32-192-28.52-41.71,2.8-73.38,4.92-111.9,23C369.21,424,342.2,451.24,327,469.34Z" transform="translate(0 -359.18)"/>
  <path class="cls-3" d="M349,443c9.51-12,31.47-14.38,38.4-5.48,3.56,4.57,2.49,11.29,2.19,13.16C388.31,458.44,383,463,380.77,465a28.72,28.72,0,0,1-7.55,4.7q-.08,7-.13,14h-23l-.24-16.4a14.75,14.75,0,0,1-5.25-6.63C341.53,452.42,348,444.22,349,443Z" transform="translate(0 -359.18)"/>
  <path class="cls-2" d="M619.93,373.9l23,2.46q-.15,22.08-1.09,45.6-.84,20.27-2.2,39.43l-39.49,2.47c3.87-12.88,7.6-26.86,11-41.9C615,404.94,617.81,388.83,619.93,373.9Z" transform="translate(0 -359.18)"/>
</svg>
