<?xml version="1.0" encoding="utf-8"?>
<!-- Generator: Adobe Illustrator 24.0.1, SVG Export Plug-In . SVG Version: 6.00 Build 0)  -->
<svg version="1.1" id="Laag_1" xmlns="http://www.w3.org/2000/svg" xmlns:xlink="http://www.w3.org/1999/xlink" x="0px" y="0px"
	 viewBox="0 0 92 70.3" style="enable-background:new 0 0 92 70.3;" xml:space="preserve">
<style type="text/css">
	.st0{fill:#801072;}
	.st1{fill:#FFFFFF;}
</style>
<g>
	<g>
		<path class="st0" d="M26.4,71.8c-1.7-0.2-2.9-0.9-3.8-2c-0.2-0.2-0.3-0.4-0.4-0.7c-5.9-0.1-11.8-1.7-13-2c-1-0.3-1.8-1.4-1.8-2.4
			S8,62.9,9,62.4h0.1h0.1c16.3-4.9,23.4-8.4,26.4-10.2c-0.9-0.8-1.8-1.3-2.4-1.5h-0.1H33l0,0c-0.2,0-0.4-0.1-0.5-0.1l0,0h-0.2
			c-2.2-0.4-5.5-1-6.4-4.4v-0.1c0-0.3-0.1-0.7-0.1-1l0,0c-4.1-0.1-6.3-2.2-6.7-4.2c-0.1-0.5-0.1-1.1,0-1.6c-1.8-0.3-3.9-1-5.8-1.8
			c-4-1.5-5.5-4.5-5.1-6.7c0.1-0.6,0.4-1.1,0.7-1.5c-4.1-2.9-8-6.8-7.4-10.2c0.3-1.2,1-2,1.9-2.4C1.5,14.5-0.3,12.1-1,10V9.9V9.8
			C-1.3,8-1.3,6.6-0.5,5.5C0.1,4.8,1,4.4,1.9,4.4c1.6,0,3.3,1,6.4,3.4c5.7,4.4,12.6,6.7,21.3,7.1c8.9,0.4,11.3,0.8,17.4,7.7
			c3.5,4.1,7.7,7.8,12.4,10.9c5.8-3.9,9.1-9.1,9.5-12.3c0.2-2.1,1-3.8,2.2-4.9c-0.2-1.2-0.4-3.1,0.6-4.7c0.3-0.5,0.7-0.9,1.2-1.2
			c-0.1-0.9,0.1-1.8,0.5-2.6c0.3-0.6,0.8-1.1,1.3-1.4c0-0.9,0.4-1.7,1-2.4c0.6-0.6,1.2-0.9,2-1c0-0.1,0.1-0.1,0.1-0.2
			c0.7-1.2,1.7-1.9,2.9-1.9c0.4-1,1.1-1.6,1.7-2c0.4-0.3,0.8-0.5,1.4-0.5c0.8,0,1.5,0.3,2,1c4.3,5.4,7.8,14.8,5.3,22.4
			c-1.5,4.6-4.9,8.7-7.3,11.1c1.5,1,2.5,2.2,3.1,3.1c3.8,0.7,6,4.3,6.1,4.5c0.4,0.6,0.5,1.4,0.2,2.1c-0.2,0.7-0.9,1.4-1.6,1.6
			c0,0-2.1,0.7-6.9,2.1c-1.6,0.4-3.6,2.4-6.2,5c-3.3,3.4-6.7,6.7-11.3,9.3c-5.8,3.2-12.6,3.8-17.3,3.8c-1.6,0-2.8-0.1-3.6-0.2
			c-10,4.6-16.1,6.9-18.9,7.2v0.2L26.4,71.8z"/>
		<path class="st1" d="M83.8-0.5c0.5,0,0.9,0.2,1.2,0.6c4.1,5.2,7.5,14.2,5.1,21.5c-1.6,4.9-5.5,9.3-8,11.7c2.1,0.9,3.4,2.5,4.1,3.8
			c3.7,0.4,5.9,4.1,5.9,4.1c0.2,0.3,0.3,0.8,0.1,1.3c-0.1,0.4-0.5,0.8-0.9,0.9c0,0-2.1,0.7-6.9,2.1c-1.9,0.5-4,2.6-6.6,5.3
			c-3.3,3.4-6.6,6.6-11.1,9.1c-5.5,3-12.1,3.7-16.8,3.7c-1.8,0-3.1-0.1-3.7-0.2c-7.2,3.3-16.4,7.3-19.3,7.3h-0.4v0.1
			C25,70.6,24,70,23.3,69.1c-0.3-0.3-0.4-0.7-0.5-1h-0.3c-6,0-12.2-1.7-13.1-2c-0.6-0.2-1.1-0.8-1.1-1.5c0-0.6,0.4-1.1,1-1.4
			c19.1-5.7,25.7-9.6,27.7-11c-1.1-1.1-2.6-2.3-3.8-2.6c-0.2-0.1-0.3-0.1-0.4-0.1c-0.2,0-0.3-0.1-0.5-0.1c-2.1-0.4-5-0.9-5.7-3.7
			c-0.1-0.7-0.1-1.3,0.1-1.9h-1.2c-3.5-0.1-5.4-1.8-5.7-3.4c-0.2-0.8,0.1-1.6,0.6-2.2c-1.8-0.2-4.3-0.8-6.9-1.9
			C10,35,8.7,32.5,9,30.7c0.2-0.8,0.7-1.4,1.4-1.8C6,26.1,1.8,22,2.3,19c0.4-1.6,1.6-1.9,2.5-1.9c0.2,0,0.4,0,0.5,0
			C3.5,15.3,0.8,12.3,0,9.7C-0.3,8-0.3,6.9,0.3,6.2c0.4-0.5,1-0.8,1.6-0.8c1.2,0,2.6,0.8,5.8,3.2c5.8,4.5,12.9,6.9,21.9,7.3
			c8.8,0.4,10.8,0.7,16.7,7.4c3.8,4.4,8.2,8.2,13.1,11.4c6.4-4.1,10.1-9.8,10.5-13.4c0.3-2.7,1.4-4,2.3-4.7
			c-0.4-1.4-0.5-3.2,0.3-4.5c0.4-0.6,0.9-1,1.4-1.2C73.7,10,73.8,9,74.2,8.3C74.5,7.7,75,7.2,75.7,7c-0.1-0.9,0.1-1.7,0.7-2.3
			c0.5-0.5,1-0.7,1.7-0.7c0.1,0,0.2,0,0.3,0c0.1-0.2,0.2-0.5,0.3-0.7c0.5-0.9,1.3-1.4,2.2-1.4c0.2,0,0.4,0,0.5,0.1
			c0.3-1.2,1.1-2,1.6-2.2C83.2-0.4,83.5-0.5,83.8-0.5 M83.8-2.5c-0.7,0-1.4,0.2-1.9,0.6c-0.6,0.4-1.3,1-1.8,1.9
			c-1.2,0.2-2.3,1-3,2.1c-0.8,0.2-1.5,0.6-2.1,1.2c-0.5,0.5-1.1,1.3-1.3,2.5c-0.5,0.4-1,0.9-1.3,1.6C72,8.1,71.8,9,71.8,9.9
			c-0.4,0.3-0.7,0.7-1,1.1l0,0l0,0c-1,1.6-1,3.5-0.8,4.9c-1.2,1.3-1.9,3-2.1,5.2c-0.3,2.8-3.4,7.6-8.5,11.2
			c-4.4-3-8.2-6.4-11.6-10.3c-6.4-7.3-9-7.7-18.1-8.1C21.2,13.5,14.4,11.3,8.9,7c-3.3-2.5-5.1-3.6-7-3.6C0.7,3.4-0.5,4-1.2,4.9
			C-2.4,6.3-2.3,8.2-2,10v0.1v0.1c0.5,1.7,1.8,3.7,3.6,5.9c-0.6,0.6-1.1,1.4-1.4,2.3v0.1v0.1c-0.7,4.1,4,8.3,7.1,10.6
			C7.2,29.5,7,29.8,7,30.1v0.1v0.1c-0.4,2.6,1.2,6.1,5.7,7.8c1.6,0.7,3.3,1.2,5,1.6c0,0.4,0,0.7,0.1,1.1c0.5,2.2,2.7,4.5,6.7,4.9
			c0,0.1,0,0.2,0,0.2V46v0.1c1,4,4.8,4.7,7.1,5.2h0.1h0.1c0.1,0,0.3,0.1,0.4,0.1l0,0l0.2,0.1c0.2,0,0.5,0.2,0.8,0.4
			c-3.5,1.9-10.7,5.1-24.8,9.3H8.2L8,61.3c-1.3,0.7-2.1,1.9-2.1,3.2c0,1.5,1,2.9,2.5,3.4c1.2,0.4,7,1.9,12.8,2.1
			c0.1,0.1,0.2,0.2,0.3,0.3c1.1,1.3,2.6,2.1,4.4,2.4l2.3,0.3v-0.6c2.4-0.5,7.1-2.1,18-7.1c0.9,0.1,2.1,0.1,3.4,0.1
			c4.8,0,11.8-0.7,17.8-3.9c4.8-2.7,8.2-6,11.6-9.5c1.9-2,4.2-4.4,5.7-4.8l0,0l0,0c4.4-1.3,6.6-2,6.9-2.1c1-0.3,1.9-1.2,2.2-2.2
			c0.4-1,0.2-2.1-0.3-3c-0.3-0.5-2.5-3.9-6.3-4.8c-0.5-0.7-1.2-1.6-2.2-2.4c2.4-2.6,5.3-6.4,6.7-10.7c2.6-8-1-17.7-5.4-23.4
			C85.9-2,84.9-2.5,83.8-2.5L83.8-2.5z"/>
	</g>
</g>
</svg>
